<?xml version="1.0" encoding="utf-8"?>
<!-- Generator: Adobe Illustrator 14.0.0, SVG Export Plug-In  -->
<!DOCTYPE svg PUBLIC "-//W3C//DTD SVG 1.1//EN" "http://www.w3.org/Graphics/SVG/1.1/DTD/svg11.dtd" [
	<!ENTITY ns_flows "http://ns.adobe.com/Flows/1.0/">
]>
<svg version="1.1"
	 xmlns="http://www.w3.org/2000/svg" xmlns:xlink="http://www.w3.org/1999/xlink" xmlns:a="http://ns.adobe.com/AdobeSVGViewerExtensions/3.0/"
	 x="0px" y="0px" width="310px" height="72px" viewBox="-0.5 -0.4 310 72" enable-background="new -0.5 -0.4 310 72"
	 xml:space="preserve">
<defs>
</defs>
<g>
	<g>
		<g>
			<path fill="#00A5BF" d="M18,8.3l26.8,40.5V8c0-2.7,0.6-4.6,1.7-6c1.1-1.3,2.7-2,4.6-2c2,0,3.6,0.7,4.7,2c1.2,1.3,1.7,3.3,1.7,6
				v54c0,6-2.5,9-7.5,9c-1.3,0-2.4-0.2-3.4-0.5c-1-0.4-1.9-0.9-2.8-1.7c-0.9-0.8-1.7-1.7-2.4-2.7c-0.8-1-1.5-2.1-2.3-3.2L13,22.8
				v40.3c0,2.6-0.6,4.6-1.8,6s-2.8,2-4.7,2c-2,0-3.5-0.7-4.7-2C0.6,67.7,0,65.7,0,63.1v-53c0-2.3,0.2-4,0.8-5.3
				c0.6-1.4,1.6-2.6,3-3.4C5.1,0.4,6.6,0,8.2,0c1.2,0,2.3,0.2,3.2,0.6c0.9,0.4,1.7,1,2.3,1.6c0.7,0.7,1.4,1.6,2.1,2.7
				C16.5,6,17.2,7.2,18,8.3z"/>
			<path fill="#00A5BF" d="M101.9,48.2h-25c0,2.9,0.6,5.5,1.8,7.7c1.1,2.2,2.7,3.9,4.5,5c1.9,1.1,4,1.7,6.3,1.7
				c1.5,0,2.9-0.2,4.2-0.5c1.3-0.4,2.5-0.9,3.7-1.7c1.2-0.8,2.3-1.6,3.3-2.5c1-0.9,2.3-2.1,3.9-3.6c0.7-0.6,1.6-0.8,2.8-0.8
				c1.3,0,2.4,0.4,3.2,1.1c0.8,0.7,1.2,1.7,1.2,3c0,1.2-0.5,2.5-1.4,4.1c-0.9,1.5-2.3,3-4.1,4.5c-1.8,1.4-4.1,2.6-6.9,3.5
				s-5.9,1.4-9.5,1.4c-8.2,0-14.6-2.3-19.2-7c-4.6-4.7-6.8-11-6.8-19.1c0-3.8,0.6-7.3,1.7-10.5s2.8-6,4.9-8.3c2.2-2.3,4.8-4.1,8-5.3
				c3.2-1.2,6.7-1.9,10.5-1.9c5,0,9.3,1.1,12.9,3.2c3.6,2.1,6.3,4.8,8,8.2c1.8,3.3,2.7,6.8,2.7,10.2c0,3.2-0.9,5.3-2.8,6.3
				C107.9,47.7,105.3,48.2,101.9,48.2z M76.9,40.9h23.2c-0.3-4.4-1.5-7.6-3.5-9.8c-2-2.2-4.7-3.3-8.1-3.3c-3.2,0-5.8,1.1-7.9,3.3
				C78.6,33.4,77.3,36.6,76.9,40.9z"/>
		</g>
		<g>
			<path fill="#00A5BF" d="M120,20.2h1.4v-7.7c0-2.1,0.1-3.7,0.2-4.9c0.1-1.2,0.4-2.2,0.9-3c0.5-0.9,1.2-1.6,2.2-2.1
				c0.9-0.5,2-0.8,3.1-0.8c1.6,0,3.1,0.6,4.4,1.8c0.9,0.8,1.4,1.8,1.7,3s0.4,2.8,0.4,5v8.7h4.7c1.8,0,3.2,0.4,4.1,1.3
				c1,0.9,1.4,2,1.4,3.3c0,1.7-0.7,2.9-2,3.6c-1.4,0.7-3.3,1-5.8,1h-2.4v23.5c0,2,0.1,3.5,0.2,4.6s0.5,2,1.1,2.6c0.6,0.7,1.6,1,3,1
				c0.8,0,1.8-0.1,3-0.4c1.3-0.3,2.3-0.4,3-0.4c1,0,2,0.4,2.8,1.2c0.8,0.8,1.2,1.9,1.2,3.1c0,2.1-1.1,3.6-3.4,4.7s-5.5,1.6-9.7,1.6
				c-4,0-7-0.7-9.1-2s-3.4-3.2-4.1-5.6c-0.6-2.4-1-5.5-1-9.5V29.4h-1.7c-1.8,0-3.3-0.4-4.2-1.3c-1-0.9-1.5-2-1.5-3.3
				c0-1.3,0.5-2.4,1.5-3.3C116.6,20.6,118.1,20.2,120,20.2z"/>
		</g>
		<g>
			<path fill="#00A5BF" d="M164.7,71.1c-1.9,0-3.6-0.6-5-1.9s-2.1-3-2.1-5.3c0-1.9,0.7-3.5,2-4.9c1.3-1.4,3-2.1,5-2.1s3.6,0.7,5,2
				s2.1,3,2.1,4.9c0,2.2-0.7,4-2.1,5.2S166.5,71.1,164.7,71.1z"/>
		</g>
		<g>
			<path fill="#87AD40" d="M181.3,62.6V40.8l-16.8-26c-1.5-2.3-2.5-4.2-3.1-5.5s-0.9-2.5-0.9-3.4c0-1.6,0.6-3,1.9-4.1
				c1.2-1.2,2.8-1.7,4.6-1.7c1.9,0,3.4,0.5,4.3,1.6s2.5,3.2,4.4,6.4l12.8,20.9l13-20.9c0.8-1.3,1.4-2.4,2-3.2
				c0.5-0.9,1.1-1.7,1.8-2.5c0.6-0.8,1.4-1.4,2.1-1.8c0.8-0.4,1.7-0.6,2.9-0.6c1.7,0,3.2,0.6,4.4,1.7c1.2,1.1,1.8,2.5,1.8,4
				c0,1.2-0.3,2.4-0.9,3.7s-1.6,2.9-3,5.1l-17.2,26.4v21.8c0,2.8-0.7,5-2,6.4s-3,2.1-5,2.1c-2.1,0-3.7-0.7-5-2.1
				C182,67.6,181.3,65.5,181.3,62.6z"/>
			<path fill="#87AD40" d="M257.4,45c0,3.8-0.6,7.3-1.8,10.5c-1.2,3.2-2.9,6-5.2,8.3c-2.3,2.3-4.9,4.1-8.1,5.3s-6.6,1.9-10.5,1.9
				c-3.9,0-7.4-0.6-10.5-1.9s-5.8-3-8-5.4c-2.3-2.3-4-5.1-5.2-8.3c-1.2-3.2-1.8-6.7-1.8-10.5c0-3.9,0.6-7.4,1.8-10.6
				c1.2-3.2,2.9-6,5.1-8.3c2.2-2.3,4.9-4,8.1-5.3c3.2-1.2,6.6-1.9,10.5-1.9c3.9,0,7.4,0.6,10.5,1.9c3.2,1.3,5.9,3,8.1,5.3
				c2.3,2.3,4,5.1,5.1,8.3S257.4,41.2,257.4,45z M244.5,45c0-5.2-1.1-9.3-3.4-12.2s-5.4-4.4-9.3-4.4c-2.5,0-4.7,0.6-6.6,1.9
				c-1.9,1.3-3.4,3.2-4.4,5.7s-1.5,5.5-1.5,8.9c0,3.3,0.5,6.3,1.5,8.8c1,2.5,2.5,4.4,4.4,5.7c1.9,1.3,4.1,2,6.7,2
				c3.9,0,7-1.5,9.3-4.4C243.4,54.2,244.5,50.2,244.5,45z"/>
		</g>
		<g>
			<path fill="#87AD40" d="M296.8,63.8v-1.6c-1.5,1.9-3.1,3.6-4.8,4.9s-3.5,2.3-5.5,2.9s-4.3,1-6.8,1c-3.1,0-5.9-0.6-8.3-1.9
				s-4.4-3-5.7-5.3c-1.6-2.7-2.4-6.6-2.4-11.7V26.7c0-2.6,0.6-4.5,1.7-5.7s2.7-1.9,4.6-1.9c1.9,0,3.5,0.6,4.7,1.9
				c1.2,1.3,1.8,3.2,1.8,5.7v20.5c0,3,0.3,5.5,0.8,7.5s1.4,3.6,2.7,4.7c1.3,1.1,3.1,1.7,5.3,1.7c2.2,0,4.2-0.6,6.1-1.9
				c1.9-1.3,3.3-3,4.2-5c0.7-1.8,1.1-5.8,1.1-11.9V26.7c0-2.5,0.6-4.4,1.8-5.7c1.2-1.3,2.7-1.9,4.6-1.9s3.4,0.6,4.6,1.9
				s1.7,3.2,1.7,5.7v37.1c0,2.4-0.6,4.3-1.7,5.5s-2.5,1.8-4.3,1.8s-3.2-0.6-4.3-1.9S296.8,66.1,296.8,63.8z"/>
		</g>
	</g>
</g>
</svg>
